# xmcd
#
# Track frame offsets:
#	150
#	11399
#	19690
#	31272
#	42571
#	53326
#	63794
#	75252
#	86854
#	99672
#	111324
#	121650
#	131903
#	143758
#	156854
#	167210
#	179067
#	190350
#
# Disc length: 2707 seconds
#
# Revision: 0
# Processed by: cddbd v1.5.1PL0 Copyright (c) Steve Scherf et al.
# Submitted via: audiograbber 1.83.01
#
DISCID=ea0a9112
DTITLE=Various Artist - Country Love songs
DYEAR=1900
DGENRE=
TTITLE0=Fankie Lane- Answer Me
TTITLE1=Slim Whitman-Have you ever been lonely
TTITLE2=Patsy Cline-Let the teardrops fall
TTITLE3=Anne Murray-The last thing on my mind
TTITLE4=Billie JO Spears-I'm so lonely I could cry
TTITLE5=Ferlin Husky-Wings of a dove
TTITLE6=Willie Nelson-Is there something on your mind
TTITLE7=Barbara Fairchild-Cheatin is
TTITLE8=Billie Jo Spears- Dallas
TTITLE9=Patsy Cline Ive loved and lost again
TTITLE10=Frankie Lane- I Beleive
TTITLE11=Willie Nelson- Broken Promises
TTITLE12=Dolly Parton-Making Believe
TTITLE13=Slim Whitman- Red sails in the desert
TTITLE14=Billie Jo Spears- It makes no Difference now
TTITLE15=Roy Drusky-Three hearts in a tangle
TTITLE16=Frankie Lane- Love is a golden ring
TTITLE17=Lynn Anderson-Rose Garden
EXTD=
EXTT0=
EXTT1=
EXTT2=
EXTT3=
EXTT4=
EXTT5=
EXTT6=
EXTT7=
EXTT8=
EXTT9=
EXTT10=
EXTT11=
EXTT12=
EXTT13=
EXTT14=
EXTT15=
EXTT16=
EXTT17=
PLAYORDER=
